<svg width="15" height="15" viewBox="0 0 15 15" fill="none" xmlns="http://www.w3.org/2000/svg">
<path d="M2.5031 10.0601C2.02864 10.5568 1.72101 11.1892 1.6231 11.8691C1.56302 12.2089 1.54055 12.5543 1.5561 12.8991V13.4441H2.3061C2.58343 13.4427 2.85843 13.4177 3.1311 13.3691C3.81279 13.2747 4.44674 12.9658 4.9411 12.4871C5.23119 12.161 5.38028 11.7333 5.35573 11.2975C5.33118 10.8618 5.13499 10.4535 4.8101 10.1621C4.51548 9.84649 4.10891 9.65897 3.67762 9.63971C3.24633 9.62045 2.82467 9.771 2.5031 10.0591M4.1351 11.6801C3.81116 11.9889 3.39703 12.1861 2.9531 12.2431H2.7471V12.0361C2.80442 11.5928 3.00165 11.1795 3.3101 10.8561C3.37352 10.8045 3.4534 10.7775 3.5351 10.7801C3.61842 10.7836 3.70022 10.8036 3.77575 10.8389C3.85128 10.8743 3.91904 10.9243 3.9751 10.9861C4.08785 11.0573 4.16791 11.1702 4.19787 11.3001C4.22783 11.4301 4.20527 11.5666 4.1351 11.6801ZM13.7351 2.09906C13.7305 1.87905 13.6411 1.66932 13.4854 1.51371C13.3298 1.35811 13.1201 1.26866 12.9001 1.26406C11.8026 1.17437 10.6983 1.30666 9.65297 1.65302C8.60769 1.99939 7.64288 2.55274 6.8161 3.28006L5.2881 5.06206L3.0381 4.59406C2.88457 4.56076 2.72514 4.56646 2.57438 4.61066C2.42362 4.65486 2.28634 4.73613 2.1751 4.84706L1.5381 5.48406C1.44077 5.5834 1.3667 5.70309 1.32122 5.83451C1.27574 5.96594 1.25999 6.10581 1.2751 6.24406C1.28922 6.38376 1.33445 6.51852 1.40748 6.63844C1.4805 6.75836 1.57947 6.8604 1.6971 6.93706L3.6281 8.17506L3.7501 8.25006L6.7501 11.2971L6.8251 11.3721L8.0631 13.3031C8.13976 13.4207 8.2418 13.5197 8.36172 13.5927C8.48164 13.6657 8.6164 13.7109 8.7561 13.7251H8.8601C9.10592 13.7237 9.34141 13.626 9.5161 13.4531L10.1531 12.8161C10.264 12.7048 10.3453 12.5675 10.3895 12.4168C10.4337 12.266 10.4394 12.1066 10.4061 11.9531L9.9381 9.71306L11.6631 8.23106C12.4044 7.40186 12.9701 6.43117 13.3262 5.37749C13.6823 4.32381 13.8214 3.20794 13.7351 2.09906ZM2.9151 5.76506L4.1531 6.02806L3.5531 6.73106L2.6161 6.10306L2.9151 5.76506ZM8.8971 12.4221L8.2691 11.4841L8.9721 10.8841L9.2351 12.1221L8.8971 12.4221ZM10.8751 7.36906L7.4251 10.3121L4.6881 7.57506L7.6311 4.12506C8.99541 2.94658 10.7628 2.34168 12.5631 2.43706C12.6564 4.23707 12.0517 6.00369 10.8751 7.36906Z" fill="#5C67FF"/>
<path d="M10.4339 6.21605C10.5364 6.10847 10.6163 5.98152 10.669 5.84264C10.7218 5.70376 10.7463 5.55575 10.741 5.40728C10.7358 5.25882 10.701 5.11289 10.6387 4.97805C10.5763 4.84321 10.4877 4.72218 10.3779 4.62205C10.2324 4.44806 10.036 4.32402 9.81629 4.26735C9.59663 4.21067 9.36473 4.22421 9.15315 4.30606C8.94158 4.38791 8.76094 4.53396 8.63661 4.72372C8.51228 4.91347 8.45049 5.13739 8.45992 5.36405C8.46627 5.51407 8.50325 5.66119 8.56861 5.79637C8.63396 5.93154 8.72629 6.05191 8.83992 6.15005C8.94003 6.25941 9.06077 6.3479 9.19519 6.41044C9.32961 6.47298 9.47507 6.50834 9.6232 6.51447C9.77133 6.5206 9.91922 6.4974 10.0583 6.44618C10.1975 6.39497 10.3251 6.31676 10.4339 6.21605Z" fill="#5C67FF"/>
</svg>
