<svg width="24" height="24" viewBox="0 0 24 24" fill="none" xmlns="http://www.w3.org/2000/svg">
    <path d="M22.54 6.42a2.78 2.78 0 0 0-1.94-1.95C18.88 4 12 4 12 4s-6.88 0-8.6.47a2.78 2.78 0 0 0-1.94 1.95A29.04 29.04 0 0 0 1 12a29.04 29.04 0 0 0 .46 5.58 2.78 2.78 0 0 0 1.94 1.95C5.12 20 12 20 12 20s6.88 0 8.6-.47a2.78 2.78 0 0 0 1.94-1.95A29.04 29.04 0 0 0 23 12a29.04 29.04 0 0 0-.46-5.58z" stroke="#FF0000" strokeWidth="2" strokeLinecap="round" strokeLinejoin="round" />
    <path d="M9.75 15.02l5.75-3.02-5.75-3.02v6.04z" stroke="#FF0000" strokeWidth="2" strokeLinecap="round" strokeLinejoin="round" />
</svg>
