<svg width="24" height="24" viewBox="0 0 24 24" fill="none" stroke="#E60023" strokeWidth="2" strokeLinecap="round" strokeLinejoin="round" xmlns="http://www.w3.org/2000/svg">
    <path d="M12 2C6.5 2 2 6.5 2 12c0 4.3 2.7 8 6.5 9.5-.1-1-.1-2.4 0-3.4l1.5-6.1s-.4-.8-.4-1.9c0-1.8 1-3.1 2.3-3.1 1 0 1.6.8 1.6 1.7 0 1-.7 2.6-1 4.1-.3 1.2.6 2.2 1.8 2.2 2.1 0 3.8-2.3 3.8-5.5 0-2.8-2-4.8-5.3-4.8-3.7 0-5.9 2.8-5.9 5.7 0 1 .4 2.1.9 2.7 0 .1 0 .2 0 .2-.1.3-.3 1.1-.3 1.3 0 .2-.2.2-.4.1-1.6-.7-2.6-2.9-2.6-4.7 0-3.8 2.8-7.3 8.1-7.3 4.2 0 7.5 3 7.5 7.1 0 4.2-2.7 7.6-6.4 7.6-1.2 0-2.4-.6-2.8-1.4l-.8 2.9c-.3 1-1 2.2-1.5 3 .9.3 1.8.4 2.8.4 5.5 0 10-4.5 10-10C22 6.5 17.5 2 12 2z"/>
</svg>
