<svg width="122" height="40" viewBox="0 0 122 40" fill="none" xmlns="http://www.w3.org/2000/svg">
<g clip-path="url(#clip0_2_909)">
<g clip-path="url(#clip1_2_909)">
<path d="M4.06379 32.0001V14.9441C4.06379 13.8348 4.33046 12.8001 4.86379 11.8401C5.39712 10.8801 6.15446 10.1121 7.13579 9.53614C8.13846 8.93881 9.31179 8.64014 10.6558 8.64014V11.9361C9.63179 11.9361 8.86379 12.2348 8.35179 12.8321C7.83979 13.4081 7.58379 14.1014 7.58379 14.9121V32.0001H4.06379ZM0.383789 19.8401V16.6401H14.8158V19.8401H0.383789ZM13.3438 32.0001V8.96014H16.8638V32.0001H13.3438ZM20.7963 32.0001V16.6401H24.3163V32.0001H20.7963ZM22.5563 13.8241C21.959 13.8241 21.4576 13.6214 21.0523 13.2161C20.6683 12.8108 20.4763 12.3094 20.4763 11.7121C20.4763 11.1148 20.6683 10.6134 21.0523 10.2081C21.4576 9.80281 21.959 9.60014 22.5563 9.60014C23.175 9.60014 23.6763 9.80281 24.0603 10.2081C24.4443 10.6134 24.6363 11.1148 24.6363 11.7121C24.6363 12.3094 24.4443 12.8108 24.0603 13.2161C23.6763 13.6214 23.175 13.8241 22.5563 13.8241ZM36.4883 32.3201C35.315 32.3201 34.2696 32.0748 33.3523 31.5841C32.435 31.0721 31.7096 30.3788 31.1763 29.5041C30.6643 28.6294 30.4083 27.6374 30.4083 26.5281V22.1121C30.4083 21.0028 30.675 20.0108 31.2083 19.1361C31.7416 18.2614 32.467 17.5788 33.3843 17.0881C34.3016 16.5761 35.3363 16.3201 36.4883 16.3201C37.875 16.3201 39.123 16.6828 40.2323 17.4081C41.363 18.1121 42.2483 19.0721 42.8883 20.2881C43.5496 21.4828 43.8803 22.8374 43.8803 24.3521C43.8803 25.8454 43.5496 27.2001 42.8883 28.4161C42.2483 29.6108 41.363 30.5601 40.2323 31.2641C39.123 31.9681 37.875 32.3201 36.4883 32.3201ZM28.2643 38.4001V16.6401H31.7843V20.7681L31.1763 24.5121L31.7843 28.2241V38.4001H28.2643ZM35.9123 28.9921C36.7656 28.9921 37.5123 28.8001 38.1523 28.4161C38.8136 28.0108 39.3256 27.4561 39.6883 26.7521C40.0723 26.0481 40.2643 25.2374 40.2643 24.3201C40.2643 23.4028 40.0723 22.5921 39.6883 21.8881C39.3256 21.1841 38.8136 20.6401 38.1523 20.2561C37.5123 19.8508 36.7656 19.6481 35.9123 19.6481C35.059 19.6481 34.3016 19.8508 33.6403 20.2561C32.979 20.6401 32.467 21.1841 32.1043 21.8881C31.7416 22.5921 31.5603 23.4028 31.5603 24.3201C31.5603 25.2374 31.7416 26.0481 32.1043 26.7521C32.467 27.4561 32.979 28.0108 33.6403 28.4161C34.3016 28.8001 35.059 28.9921 35.9123 28.9921Z" fill="#4F39F6"/>
<path d="M53.963 32.3198C52.427 32.3198 51.0403 31.9785 49.803 31.2958C48.587 30.5918 47.6163 29.6318 46.891 28.4158C46.187 27.1998 45.835 25.8345 45.835 24.3198C45.835 22.8051 46.187 21.4505 46.891 20.2558C47.595 19.0398 48.5443 18.0798 49.739 17.3758C50.955 16.6718 52.299 16.3198 53.771 16.3198C55.2003 16.3198 56.459 16.6505 57.547 17.3118C58.6563 17.9731 59.5203 18.8798 60.139 20.0318C60.779 21.1838 61.099 22.4958 61.099 23.9678C61.099 24.2238 61.0777 24.4905 61.035 24.7678C61.0137 25.0238 60.971 25.3118 60.907 25.6318H48.299V22.7518H59.083L57.771 23.9038C57.7283 22.9651 57.547 22.1758 57.227 21.5358C56.907 20.8958 56.4483 20.4051 55.851 20.0638C55.275 19.7225 54.5603 19.5518 53.707 19.5518C52.811 19.5518 52.0323 19.7438 51.371 20.1278C50.7097 20.5118 50.1977 21.0558 49.835 21.7598C49.4723 22.4425 49.291 23.2638 49.291 24.2238C49.291 25.1838 49.483 26.0265 49.867 26.7518C50.251 27.4771 50.795 28.0425 51.499 28.4478C52.203 28.8318 53.0137 29.0238 53.931 29.0238C54.7203 29.0238 55.4457 28.8851 56.107 28.6078C56.7897 28.3305 57.3657 27.9251 57.835 27.3918L60.075 29.6638C59.3283 30.5385 58.4217 31.1998 57.355 31.6478C56.2883 32.0958 55.1577 32.3198 53.963 32.3198ZM70.3528 32.3198C68.9661 32.3198 67.7074 31.9678 66.5768 31.2638C65.4674 30.5598 64.5821 29.6105 63.9208 28.4158C63.2808 27.1998 62.9608 25.8451 62.9608 24.3518C62.9608 22.8371 63.2808 21.4825 63.9208 20.2878C64.5821 19.0718 65.4674 18.1118 66.5768 17.4078C67.7074 16.6825 68.9661 16.3198 70.3528 16.3198C71.5261 16.3198 72.5608 16.5758 73.4568 17.0878C74.3741 17.5785 75.0994 18.2611 75.6328 19.1358C76.1661 20.0105 76.4328 21.0025 76.4328 22.1118V26.5278C76.4328 27.6371 76.1661 28.6291 75.6328 29.5038C75.1208 30.3785 74.4061 31.0718 73.4888 31.5838C72.5714 32.0745 71.5261 32.3198 70.3528 32.3198ZM70.9288 28.9918C72.2301 28.9918 73.2754 28.5545 74.0648 27.6798C74.8754 26.8051 75.2808 25.6851 75.2808 24.3198C75.2808 23.4025 75.0994 22.5918 74.7368 21.8878C74.3741 21.1838 73.8621 20.6398 73.2008 20.2558C72.5608 19.8505 71.8034 19.6478 70.9288 19.6478C70.0754 19.6478 69.3181 19.8505 68.6568 20.2558C68.0168 20.6398 67.5048 21.1838 67.1208 21.8878C66.7581 22.5918 66.5768 23.4025 66.5768 24.3198C66.5768 25.2371 66.7581 26.0478 67.1208 26.7518C67.5048 27.4558 68.0168 28.0105 68.6568 28.4158C69.3181 28.7998 70.0754 28.9918 70.9288 28.9918ZM75.0568 31.9998V27.8718L75.6648 24.1278L75.0568 20.4158V16.6398H78.5768V31.9998H75.0568ZM82.4833 31.9998V16.6398H86.0033V31.9998H82.4833ZM86.0033 23.4558L84.7873 22.8478C84.7873 20.9065 85.2139 19.3385 86.0673 18.1438C86.9419 16.9278 88.2539 16.3198 90.0033 16.3198C90.7713 16.3198 91.4646 16.4585 92.0833 16.7358C92.7019 17.0131 93.2779 17.4611 93.8113 18.0798L91.5073 20.4478C91.2299 20.1491 90.9206 19.9358 90.5793 19.8078C90.2379 19.6798 89.8433 19.6158 89.3953 19.6158C88.4139 19.6158 87.6033 19.9251 86.9633 20.5438C86.3233 21.1625 86.0033 22.1331 86.0033 23.4558ZM106.043 31.9998V23.1358C106.043 22.1118 105.712 21.2691 105.051 20.6078C104.411 19.9465 103.579 19.6158 102.555 19.6158C101.872 19.6158 101.264 19.7651 100.731 20.0638C100.197 20.3625 99.7812 20.7785 99.4825 21.3118C99.1838 21.8451 99.0345 22.4531 99.0345 23.1358L97.6585 22.3678C97.6585 21.1945 97.9145 20.1598 98.4265 19.2638C98.9385 18.3465 99.6425 17.6318 100.539 17.1198C101.456 16.5865 102.48 16.3198 103.611 16.3198C104.763 16.3198 105.787 16.6185 106.683 17.2158C107.579 17.7918 108.283 18.5491 108.795 19.4878C109.307 20.4051 109.562 21.3651 109.562 22.3678V31.9998H106.043ZM95.5145 31.9998V16.6398H99.0345V31.9998H95.5145Z" fill="black"/>
<path d="M121 28.5C121 27.1193 119.881 26 118.5 26C117.119 26 116 27.1193 116 28.5C116 29.8807 117.119 31 118.5 31C119.881 31 121 29.8807 121 28.5Z" fill="#4F39F6" stroke="#4F39F6" stroke-width="2"/>
</g>
</g>
<defs>
<clipPath id="clip0_2_909">
<rect width="122" height="40" fill="white"/>
</clipPath>
<clipPath id="clip1_2_909">
<rect width="122" height="40" fill="white"/>
</clipPath>
</defs>
</svg>
